<svg width="59" height="59" viewBox="0 0 59 59" fill="none" xmlns="http://www.w3.org/2000/svg">
  <path d="M6.83202 24.2578C10.3296 24.2578 13.165 21.4224 13.165 17.9248C13.165 14.4272 10.3296 11.5918 6.83202 11.5918C3.3344 11.5918 0.499023 14.4272 0.499023 17.9248C0.499023 21.4224 3.3344 24.2578 6.83202 24.2578Z" fill="#E1EAF7"/>
  <path d="M1.71802 19.1748C1.71802 15.6768 4.55402 12.8418 8.05102 12.8418C9.51302 12.8418 10.855 13.3418 11.926 14.1738C10.773 12.6108 8.92302 11.5918 6.83202 11.5918C3.33402 11.5918 0.499023 14.4278 0.499023 17.9248C0.499023 19.9608 1.46402 21.7678 2.95702 22.9268C2.18202 21.8758 1.71802 20.5808 1.71802 19.1748Z" fill="#EFF1F4"/>
  <path d="M6.833 24.7588C3.065 24.7588 0 21.6938 0 17.9248C0 14.1568 3.065 11.0918 6.833 11.0918C10.601 11.0918 13.666 14.1568 13.666 17.9248C13.666 21.6928 10.6 24.7588 6.833 24.7588ZM6.833 12.0918C3.616 12.0918 1 14.7078 1 17.9248C1 21.1418 3.617 23.7588 6.833 23.7588C10.049 23.7588 12.666 21.1418 12.666 17.9248C12.666 14.7078 10.049 12.0918 6.833 12.0918Z" fill="#252525"/>
  <path d="M9.78501 11.5918H6.83301C10.331 11.5918 13.166 14.4278 13.166 17.9248C13.166 21.4218 10.33 24.2578 6.83301 24.2578H9.78501C13.283 24.2578 16.118 21.4218 16.118 17.9248C16.118 14.4278 13.282 11.5918 9.78501 11.5918Z" fill="#CFD1D5"/>
  <path d="M9.78401 24.7588H6.83301C6.55701 24.7588 6.33301 24.5348 6.33301 24.2588C6.33301 23.9828 6.55701 23.7588 6.83301 23.7588C10.049 23.7588 12.666 21.1418 12.666 17.9248C12.666 14.7078 10.049 12.0918 6.83301 12.0918C6.55701 12.0918 6.33301 11.8678 6.33301 11.5918C6.33301 11.3158 6.55701 11.0918 6.83301 11.0918H9.78501C13.553 11.0918 16.618 14.1568 16.618 17.9248C16.618 21.6928 13.552 24.7588 9.78401 24.7588ZM10.449 12.1298C12.379 13.3378 13.665 15.4838 13.665 17.9248C13.665 20.3658 12.378 22.5118 10.448 23.7208C13.353 23.3898 15.617 20.9168 15.617 17.9248C15.618 14.9338 13.354 12.4608 10.449 12.1298Z" fill="#252525"/>
  <path d="M6.83202 47.2422C10.3296 47.2422 13.165 44.4068 13.165 40.9092C13.165 37.4116 10.3296 34.5762 6.83202 34.5762C3.3344 34.5762 0.499023 37.4116 0.499023 40.9092C0.499023 44.4068 3.3344 47.2422 6.83202 47.2422Z" fill="#E1EAF7"/>
  <path d="M1.71802 42.1592C1.71802 38.6612 4.55402 35.8262 8.05102 35.8262C9.51302 35.8262 10.855 36.3262 11.926 37.1582C10.773 35.5952 8.92302 34.5762 6.83202 34.5762C3.33402 34.5762 0.499023 37.4122 0.499023 40.9092C0.499023 42.9452 1.46402 44.7522 2.95702 45.9112C2.18202 44.8602 1.71802 43.5652 1.71802 42.1592Z" fill="#EFF1F4"/>
  <path d="M6.833 47.7422C3.065 47.7422 0 44.6772 0 40.9092C0 37.1402 3.065 34.0752 6.833 34.0752C10.601 34.0752 13.666 37.1402 13.666 40.9092C13.666 44.6772 10.6 47.7422 6.833 47.7422ZM6.833 35.0752C3.616 35.0752 1 37.6922 1 40.9092C1 44.1262 3.617 46.7422 6.833 46.7422C10.049 46.7422 12.666 44.1262 12.666 40.9092C12.666 37.6922 10.049 35.0752 6.833 35.0752Z" fill="#252525"/>
  <path d="M9.78501 34.5762H6.83301C10.331 34.5762 13.166 37.4122 13.166 40.9092C13.166 44.4062 10.33 47.2422 6.83301 47.2422H9.78501C13.283 47.2422 16.118 44.4062 16.118 40.9092C16.118 37.4122 13.282 34.5762 9.78501 34.5762Z" fill="#CFD1D5"/>
  <path d="M9.78401 47.7422H6.83301C6.55701 47.7422 6.33301 47.5182 6.33301 47.2422C6.33301 46.9662 6.55701 46.7422 6.83301 46.7422C10.049 46.7422 12.666 44.1262 12.666 40.9092C12.666 37.6922 10.049 35.0752 6.83301 35.0752C6.55701 35.0752 6.33301 34.8512 6.33301 34.5752C6.33301 34.2992 6.55701 34.0752 6.83301 34.0752H9.78501C13.553 34.0752 16.618 37.1402 16.618 40.9092C16.618 44.6772 13.552 47.7422 9.78401 47.7422ZM10.449 35.1132C12.379 36.3222 13.666 38.4672 13.666 40.9092C13.666 43.3492 12.38 45.4962 10.45 46.7042C13.355 46.3732 15.618 43.9002 15.618 40.9092C15.618 37.9172 13.354 35.4442 10.449 35.1132Z" fill="#252525"/>
  <path d="M48.8169 35.75C52.3145 35.75 55.1499 32.9146 55.1499 29.417C55.1499 25.9194 52.3145 23.084 48.8169 23.084C45.3193 23.084 42.4839 25.9194 42.4839 29.417C42.4839 32.9146 45.3193 35.75 48.8169 35.75Z" fill="#E1EAF7"/>
  <path d="M43.7029 30.667C43.7029 27.169 46.5389 24.334 50.0359 24.334C51.4979 24.334 52.8399 24.834 53.9109 25.666C52.7579 24.103 50.9079 23.084 48.8169 23.084C45.3189 23.084 42.4839 25.92 42.4839 29.417C42.4839 31.453 43.4489 33.26 44.9419 34.419C44.1669 33.368 43.7029 32.073 43.7029 30.667Z" fill="#EFF1F4"/>
  <path d="M48.8169 36.25C45.0489 36.25 41.9839 33.185 41.9839 29.417C41.9839 25.649 45.0489 22.584 48.8169 22.584C52.5849 22.584 55.6499 25.649 55.6499 29.417C55.6499 33.185 52.5849 36.25 48.8169 36.25ZM48.8169 23.584C45.6009 23.584 42.9839 26.2 42.9839 29.417C42.9839 32.634 45.6009 35.25 48.8169 35.25C52.0339 35.25 54.6499 32.634 54.6499 29.417C54.6499 26.2 52.0339 23.584 48.8169 23.584Z" fill="#252525"/>
  <path d="M51.7689 23.084H48.8169C52.3149 23.084 55.1499 25.92 55.1499 29.417C55.1499 32.914 52.3139 35.75 48.8169 35.75H51.7689C55.2669 35.75 58.1019 32.914 58.1019 29.417C58.1019 25.92 55.2669 23.084 51.7689 23.084Z" fill="#CFD1D5"/>
  <path d="M51.7689 36.25H48.8169C48.5409 36.25 48.3169 36.026 48.3169 35.75C48.3169 35.474 48.5409 35.25 48.8169 35.25C52.0339 35.25 54.6499 32.634 54.6499 29.417C54.6499 26.2 52.0329 23.584 48.8169 23.584C48.5409 23.584 48.3169 23.36 48.3169 23.084C48.3169 22.808 48.5409 22.584 48.8169 22.584H51.7689C55.5369 22.584 58.6019 25.649 58.6019 29.417C58.6019 33.185 55.5369 36.25 51.7689 36.25ZM52.4339 23.622C54.3639 24.83 55.6509 26.977 55.6509 29.417C55.6509 31.857 54.3649 34.004 52.4339 35.212C55.3389 34.882 57.6029 32.408 57.6029 29.417C57.6029 26.426 55.3389 23.952 52.4339 23.622Z" fill="#252525"/>
  <path d="M27.2549 35.75C30.7525 35.75 33.5879 32.9146 33.5879 29.417C33.5879 25.9194 30.7525 23.084 27.2549 23.084C23.7573 23.084 20.9219 25.9194 20.9219 29.417C20.9219 32.9146 23.7573 35.75 27.2549 35.75Z" fill="#E1EAF7"/>
  <path d="M22.1409 30.667C22.1409 27.169 24.9769 24.334 28.4739 24.334C29.9359 24.334 31.2779 24.834 32.3489 25.666C31.1959 24.103 29.3459 23.084 27.2549 23.084C23.7569 23.084 20.9219 25.92 20.9219 29.417C20.9219 31.453 21.8869 33.26 23.3799 34.419C22.6049 33.368 22.1409 32.073 22.1409 30.667Z" fill="#EFF1F4"/>
  <path d="M27.2549 36.25C23.4869 36.25 20.4219 33.185 20.4219 29.417C20.4219 25.649 23.4869 22.584 27.2549 22.584C31.0229 22.584 34.0879 25.649 34.0879 29.417C34.0879 33.185 31.0229 36.25 27.2549 36.25ZM27.2549 23.584C24.0389 23.584 21.4219 26.2 21.4219 29.417C21.4219 32.634 24.0389 35.25 27.2549 35.25C30.4719 35.25 33.0879 32.634 33.0879 29.417C33.0879 26.2 30.4719 23.584 27.2549 23.584Z" fill="#252525"/>
  <path d="M30.2069 23.084H27.2549C30.7529 23.084 33.5879 25.92 33.5879 29.417C33.5879 32.914 30.7519 35.75 27.2549 35.75H30.2069C33.7049 35.75 36.5399 32.914 36.5399 29.417C36.5399 25.92 33.7049 23.084 30.2069 23.084Z" fill="#CFD1D5"/>
  <path d="M30.2069 36.25H27.2549C26.9789 36.25 26.7549 36.026 26.7549 35.75C26.7549 35.474 26.9789 35.25 27.2549 35.25C30.4719 35.25 33.0879 32.634 33.0879 29.417C33.0879 26.2 30.4709 23.584 27.2549 23.584C26.9789 23.584 26.7549 23.36 26.7549 23.084C26.7549 22.808 26.9789 22.584 27.2549 22.584H30.2069C33.9749 22.584 37.0399 25.649 37.0399 29.417C37.0399 33.185 33.9749 36.25 30.2069 36.25ZM30.8719 23.622C32.8029 24.83 34.0889 26.976 34.0889 29.417C34.0889 31.858 32.8029 34.004 30.8719 35.212C33.7769 34.882 36.0409 32.408 36.0409 29.417C36.0409 26.426 33.7769 23.952 30.8719 23.622Z" fill="#252525"/>
  <path d="M27.2549 13.167C30.7525 13.167 33.5879 10.3316 33.5879 6.83398C33.5879 3.33636 30.7525 0.500977 27.2549 0.500977C23.7573 0.500977 20.9219 3.33636 20.9219 6.83398C20.9219 10.3316 23.7573 13.167 27.2549 13.167Z" fill="#E1EAF7"/>
  <path d="M22.1409 8.08398C22.1409 4.58598 24.9769 1.75098 28.4739 1.75098C29.9359 1.75098 31.2779 2.25098 32.3489 3.08298C31.1959 1.51998 29.3459 0.500977 27.2549 0.500977C23.7569 0.500977 20.9219 3.33698 20.9219 6.83398C20.9219 8.86998 21.8869 10.677 23.3799 11.836C22.6049 10.784 22.1409 9.48998 22.1409 8.08398Z" fill="#EFF1F4"/>
  <path d="M27.2549 13.667C23.4869 13.667 20.4219 10.602 20.4219 6.834C20.4219 3.065 23.4869 0 27.2549 0C31.0229 0 34.0879 3.065 34.0879 6.834C34.0889 10.602 31.0229 13.667 27.2549 13.667ZM27.2549 1C24.0389 1 21.4219 3.617 21.4219 6.834C21.4219 10.051 24.0389 12.667 27.2549 12.667C30.4719 12.667 33.0879 10.051 33.0879 6.834C33.0879 3.617 30.4719 1 27.2549 1Z" fill="#252525"/>
  <path d="M30.2069 0.5H27.2549C30.7529 0.5 33.5879 3.336 33.5879 6.833C33.5879 10.33 30.7519 13.166 27.2549 13.166H30.2069C33.7049 13.166 36.5399 10.33 36.5399 6.833C36.5399 3.336 33.7049 0.5 30.2069 0.5Z" fill="#CFD1D5"/>
  <path d="M30.2069 13.667H27.2549C26.9789 13.667 26.7549 13.443 26.7549 13.167C26.7549 12.891 26.9789 12.667 27.2549 12.667C30.4719 12.667 33.0879 10.051 33.0879 6.834C33.0879 3.617 30.4709 1 27.2549 1C26.9789 1 26.7549 0.776 26.7549 0.5C26.7549 0.224 26.9789 0 27.2549 0H30.2069C33.9749 0 37.0399 3.065 37.0399 6.834C37.0409 10.602 33.9749 13.667 30.2069 13.667ZM30.8719 1.038C32.8029 2.247 34.0889 4.392 34.0889 6.834C34.0889 9.274 32.8029 11.421 30.8719 12.629C33.7769 12.299 36.0409 9.825 36.0409 6.834C36.0409 3.842 33.7769 1.368 30.8719 1.038Z" fill="#252525"/>
  <path d="M27.2549 58.333C30.7525 58.333 33.5879 55.4976 33.5879 52C33.5879 48.5024 30.7525 45.667 27.2549 45.667C23.7573 45.667 20.9219 48.5024 20.9219 52C20.9219 55.4976 23.7573 58.333 27.2549 58.333Z" fill="#E1EAF7"/>
  <path d="M22.1409 53.25C22.1409 49.752 24.9769 46.917 28.4739 46.917C29.9359 46.917 31.2779 47.417 32.3489 48.249C31.1959 46.686 29.3459 45.667 27.2549 45.667C23.7569 45.667 20.9219 48.503 20.9219 52C20.9219 54.036 21.8869 55.843 23.3799 57.002C22.6049 55.951 22.1409 54.656 22.1409 53.25Z" fill="#EFF1F4"/>
  <path d="M27.2549 58.834C23.4869 58.834 20.4219 55.769 20.4219 52C20.4219 48.232 23.4869 45.167 27.2549 45.167C31.0229 45.167 34.0879 48.232 34.0879 52C34.0889 55.769 31.0229 58.834 27.2549 58.834ZM27.2549 46.167C24.0389 46.167 21.4219 48.783 21.4219 52C21.4219 55.217 24.0389 57.834 27.2549 57.834C30.4719 57.834 33.0879 55.217 33.0879 52C33.0879 48.783 30.4719 46.167 27.2549 46.167Z" fill="#252525"/>
  <path d="M30.2069 45.667H27.2549C30.7529 45.667 33.5879 48.503 33.5879 52C33.5879 55.497 30.7519 58.333 27.2549 58.333H30.2069C33.7049 58.333 36.5399 55.497 36.5399 52C36.5399 48.503 33.7049 45.667 30.2069 45.667Z" fill="#CFD1D5"/>
  <path d="M30.2069 58.834H27.2549C26.9789 58.834 26.7549 58.61 26.7549 58.334C26.7549 58.058 26.9789 57.834 27.2549 57.834C30.4719 57.834 33.0879 55.217 33.0879 52C33.0879 48.783 30.4709 46.167 27.2549 46.167C26.9789 46.167 26.7549 45.943 26.7549 45.667C26.7549 45.391 26.9789 45.167 27.2549 45.167H30.2069C33.9749 45.167 37.0399 48.232 37.0399 52C37.0409 55.769 33.9749 58.834 30.2069 58.834ZM30.8719 46.205C32.8029 47.413 34.0889 49.559 34.0889 52C34.0889 54.441 32.8029 56.587 30.8719 57.796C33.7769 57.466 36.0409 54.992 36.0409 52C36.0409 49.009 33.7769 46.535 30.8719 46.205Z" fill="#252525"/>
  <path d="M13.2468 19.1853L12.7026 20.0254L21.7369 25.8767L22.281 25.0366L13.2468 19.1853Z" fill="#252525"/>
  <path d="M21.7369 32.9558L12.7026 38.8071L13.2468 39.6473L22.281 33.796L21.7369 32.9558Z" fill="#252525"/>
  <path d="M12.5875 21.1786L11.6816 21.6021L23.4753 46.8296L24.3812 46.4061L12.5875 21.1786Z" fill="#252525"/>
  <path d="M23.4751 12.0062L11.6787 37.231L12.5845 37.6546L24.3809 12.4298L23.4751 12.0062Z" fill="#252525"/>
  <path d="M21.0109 8.38635L11.6807 13.7017L12.1757 14.5706L21.5059 9.25525L21.0109 8.38635Z" fill="#252525"/>
  <path d="M12.1745 44.2628L11.6797 45.1318L21.011 50.445L21.5058 49.576L12.1745 44.2628Z" fill="#252525"/>
  <path d="M42.5209 28.917H33.5889V29.917H42.5209V28.917Z" fill="#252525"/>
  <path d="M33.9188 7.31092L33.1274 7.92383L45.4047 23.7761L46.1961 23.1632L33.9188 7.31092Z" fill="#252525"/>
  <path d="M45.4088 35.0619L33.1235 50.9082L33.9146 51.5215L46.1999 35.6752L45.4088 35.0619Z" fill="#252525"/>
</svg>