<svg width="800" height="800" viewBox="0 0 800 800" fill="none" xmlns="http://www.w3.org/2000/svg">
<path fill-rule="evenodd" clip-rule="evenodd" d="M713.024 177.006C721.187 181.894 728.613 190.335 733.993 199.999L597.502 281.698C556.019 213.563 481.14 171.429 400.958 171.429C274.318 171.429 171.286 273.966 171.286 400.001C171.286 442.851 183.196 482.985 203.894 517.297L65.7237 600.001C60.3411 590.338 57 579.45 57 569.675V230.323C57 210.774 70.3603 186.78 86.692 177.006L370.166 7.33201C386.495 -2.444 413.221 -2.444 429.549 7.33201L713.024 177.006ZM203.897 517.301C244.078 583.908 317.376 628.572 400.958 628.572C481.192 628.572 556.121 586.384 597.587 518.169L499.021 459.521C478.204 493.375 440.892 514.286 400.958 514.286C359.065 514.286 322.341 491.847 302.283 458.411L399.862 400.003L399.858 400.001L499.092 340.603C499.124 340.654 499.155 340.706 499.187 340.758L597.544 281.766C597.53 281.743 597.516 281.721 597.503 281.698L733.993 200C739.375 209.663 742.715 220.547 742.715 230.323V569.672C742.715 579.449 739.373 590.334 733.994 599.997L734.001 600.001C728.621 609.664 721.198 618.104 713.033 622.993L429.558 792.667C413.229 802.444 386.503 802.444 370.175 792.667L86.7016 622.993C78.5379 618.107 71.1139 609.664 65.7333 600.001L203.897 517.301ZM499.092 340.603L399.858 400.001L302.281 458.407C292.022 441.304 286.123 421.325 286.123 400.001C286.123 336.983 337.635 285.715 400.958 285.715C440.937 285.715 478.293 306.679 499.092 340.603ZM599.858 385.566H571.284V357.143H542.718V385.566H514.144V413.986H542.718V442.412H571.284V413.986H599.858V385.566ZM685.57 385.715H714.144V414.283H685.57V442.858H657.004V414.283H628.43V385.715H657.004V357.143H685.57V385.715Z" fill="#EFF1F4"/>
</svg>
