<svg width="616" height="800" viewBox="0 0 616 800" fill="none" xmlns="http://www.w3.org/2000/svg">
<path d="M357.737 0C400.891 101.816 203.03 164.203 184.638 249.07C167.809 326.964 301.84 418.322 301.96 418.322C281.525 386.107 266.62 358.94 246.184 308.693C211.565 223.826 457.148 147.254 357.737 0ZM488.522 141.364C488.522 141.364 315.544 152.303 306.769 265.418C302.802 315.785 352.447 342.231 353.89 378.894C355.092 408.826 324.079 433.709 324.079 433.709C324.079 433.709 379.735 423.611 397.165 377.932C416.398 327.205 359.66 292.585 365.43 251.955C370.959 213.128 488.522 141.364 488.522 141.364ZM530.835 401.974C512.684 401.132 492.248 407.864 474.097 421.207C509.919 413.273 540.452 435.752 540.452 461.597C540.452 519.537 457.749 574.111 457.749 574.111C457.749 574.111 585.649 559.806 585.649 464.482C585.649 425.174 561.007 403.416 530.835 401.974ZM191.37 402.936C146.773 404.498 57.6995 411.831 57.6995 446.21C57.6995 494.053 265.177 497.779 413.513 468.328C413.513 468.328 453.902 440.2 464.481 429.862C367.233 450.057 145.21 453.182 145.21 435.632C145.21 419.524 216.373 402.936 216.373 402.936C216.373 402.936 206.276 402.455 191.37 402.936ZM177.907 491.408C153.505 491.408 117.322 510.401 117.322 528.913C117.322 566.177 300.999 594.787 436.593 540.453L389.471 511.603C297.513 541.655 127.66 531.678 177.907 491.408ZM200.986 575.073C167.689 575.073 146.172 596.109 146.172 611.616C146.172 659.338 345.115 664.026 424.091 615.462L374.085 582.766C315.183 608.13 166.968 611.856 200.986 575.073ZM89.4341 618.347C35.1005 617.266 0 641.908 0 662.584C0 772.574 556.8 767.285 556.8 654.89C556.8 636.258 534.802 627.363 526.988 623.156C572.427 730.621 72.1243 722.207 72.1243 658.737C72.1243 644.312 109.148 629.887 143.287 636.619L114.437 620.271C105.903 618.948 97.2476 618.468 89.4341 618.347ZM615.461 692.395C530.835 774.257 316.626 803.587 100.974 752.98C316.626 843.135 614.379 793.009 615.461 692.395Z" fill="#EFF1F4" stroke="#EFF1F4" stroke-width="0.008"/>
</svg>
