<svg width="701" height="559" viewBox="0 0 701 559" fill="none" xmlns="http://www.w3.org/2000/svg">
<path d="M460.5 337.925L515.775 393.2L700 209L515.775 24.775L460.5 80.0751L589.5 209L460.5 337.925ZM239.5 80.0751L184.225 24.775L0 209L184.225 393.225L239.5 337.95L110.5 209L239.5 80.0751ZM385.275 0.925049L425.275 11.8501L314.775 417.075L274.775 406.15L385.275 0.925049Z" fill="#EFF1F4"/>
<path d="M458.3 270.55C463.184 256.769 471.587 244.505 482.675 234.975C494.458 225.327 508.282 218.488 523.1 214.975C541.236 210.729 559.825 208.723 578.45 209C611.251 206.307 643.923 215.529 670.475 234.975C680.236 243.59 687.952 254.275 693.06 266.251C698.168 278.227 700.539 291.192 700 304.2C700.128 316.875 698.099 329.48 694 341.475C689.628 353.344 682.438 363.974 673.05 372.45L631.175 412.45C625.73 417.804 622.035 424.68 620.575 432.175C618.787 441.23 617.949 450.446 618.075 459.675H525V446.175C524.607 431.188 526.35 416.221 530.175 401.725C533.9 389.887 540.617 379.209 549.675 370.725L583.475 338.5C590.25 332.586 595.144 324.816 597.55 316.15C599.113 309.595 599.951 302.888 600.05 296.15C600.4 288.171 598.192 280.288 593.75 273.65C591.471 270.711 588.5 268.383 585.101 266.873C581.703 265.364 577.983 264.72 574.275 265C570.148 264.915 566.044 265.646 562.2 267.15C558.456 268.895 555.421 271.868 553.6 275.575C550.833 281.252 549.001 287.339 548.175 293.6C546.656 303.861 545.979 314.229 546.15 324.6H450C449.517 306.232 452.328 287.927 458.3 270.55ZM619.725 483.05V559H523.4V483.05H619.725Z" fill="#B7B7B8"/>
</svg>
